<svg width="28" height="28" viewBox="0 0 28 28" fill="none" xmlns="http://www.w3.org/2000/svg">
<path d="M10.5 15.75C10.5 15.2668 10.8918 14.875 11.375 14.875H16.625C17.1082 14.875 17.5 15.2668 17.5 15.75C17.5 16.2332 17.1082 16.625 16.625 16.625H11.375C10.8918 16.625 10.5 16.2332 10.5 15.75Z" fill="#D9D9D9"/>
<path d="M6.74372 7.25628C6.40201 6.91457 5.84799 6.91457 5.50628 7.25628C5.16457 7.59799 5.16457 8.15201 5.50628 8.49372L8.38756 11.375L5.50628 14.2563C5.16457 14.598 5.16457 15.152 5.50628 15.4937C5.84799 15.8354 6.40201 15.8354 6.74372 15.4937L10.2437 11.9937C10.5854 11.652 10.5854 11.098 10.2437 10.7563L6.74372 7.25628Z" fill="#D9D9D9"/>
<path d="M3.5 1.75C1.567 1.75 0 3.317 0 5.25V22.75C0 24.683 1.567 26.25 3.5 26.25H24.5C26.433 26.25 28 24.683 28 22.75V5.25C28 3.317 26.433 1.75 24.5 1.75H3.5ZM24.5 3.5C25.4665 3.5 26.25 4.2835 26.25 5.25V22.75C26.25 23.7165 25.4665 24.5 24.5 24.5H3.5C2.5335 24.5 1.75 23.7165 1.75 22.75V5.25C1.75 4.2835 2.5335 3.5 3.5 3.5H24.5Z" fill="#D9D9D9"/>
</svg>
