<svg version="1.1" xmlns="http://www.w3.org/2000/svg" xmlns:xlink="http://www.w3.org/1999/xlink" width="25" height="14" viewBox="0 0 25 14"><path id="Eye" d="M22.760,9.691 C21.213,11.021 19.499,12.104 17.611,12.908 C14.512,14.228 11.381,14.395 8.196,13.220 C5.297,12.151 2.847,10.418 0.677,8.269 C0.429,8.023 0.224,7.734 -0.000,7.466 C-0.000,7.414 -0.000,7.363 -0.000,7.311 C0.863,6.151 1.888,5.141 2.976,4.194 C4.496,2.871 6.151,1.751 8.017,0.953 C10.985,-0.319 13.957,-0.330 16.929,0.929 C19.208,1.894 21.173,3.323 22.932,5.033 C23.581,5.663 24.174,6.352 24.786,7.020 C24.875,7.117 24.930,7.247 25.000,7.363 C25.000,7.414 25.000,7.466 25.000,7.518 C24.256,8.245 23.547,9.014 22.760,9.691 zM23.984,7.335 C22.044,5.091 19.822,3.197 17.116,1.907 C15.791,1.275 14.395,0.879 12.919,0.814 C11.101,0.733 9.397,1.182 7.772,1.962 C5.605,3.002 3.753,4.463 2.083,6.163 C1.698,6.556 1.337,6.972 0.959,7.383 C1.027,7.457 1.068,7.512 1.119,7.557 C1.969,8.303 2.786,9.091 3.679,9.783 C5.521,11.209 7.550,12.294 9.833,12.865 C11.997,13.407 14.128,13.270 16.234,12.553 C18.100,11.918 19.779,10.954 21.344,9.779 C22.300,9.061 23.196,8.278 24.025,7.406 C24.001,7.364 23.995,7.348 23.984,7.335 zM12.500,11.539 C9.984,11.539 7.931,9.510 7.921,7.014 C7.911,4.515 9.975,2.463 12.501,2.463 C15.016,2.464 17.069,4.493 17.079,6.989 C17.089,9.488 15.025,11.540 12.500,11.539 zM12.536,3.283 C10.469,3.264 8.763,4.925 8.748,6.973 C8.733,9.025 10.407,10.707 12.477,10.720 C14.534,10.733 16.231,9.080 16.252,7.043 C16.273,4.990 14.606,3.303 12.536,3.283 z" fill="#757575" /></svg>