<svg width="80" height="80" viewBox="0 0 80 80" fill="none" xmlns="http://www.w3.org/2000/svg">
<path d="M12.5 25C13.8807 25 15 23.8807 15 22.5C15 21.1193 13.8807 20 12.5 20C11.1193 20 10 21.1193 10 22.5C10 23.8807 11.1193 25 12.5 25Z" fill="#D9D9D9"/>
<path d="M20 25C21.3807 25 22.5 23.8807 22.5 22.5C22.5 21.1193 21.3807 20 20 20C18.6193 20 17.5 21.1193 17.5 22.5C17.5 23.8807 18.6193 25 20 25Z" fill="#D9D9D9"/>
<path d="M30 22.5C30 23.8807 28.8807 25 27.5 25C26.1193 25 25 23.8807 25 22.5C25 21.1193 26.1193 20 27.5 20C28.8807 20 30 21.1193 30 22.5Z" fill="#D9D9D9"/>
<path d="M0 20C0 14.4772 4.47715 10 10 10H65C70.5229 10 75 14.4772 75 20V40C75 41.3807 73.8807 42.5 72.5 42.5C71.1193 42.5 70 41.3807 70 40V35H5V60C5 62.7614 7.23858 65 10 65H37.5C38.8807 65 40 66.1193 40 67.5C40 68.8807 38.8807 70 37.5 70H10C4.47716 70 0 65.5228 0 60V20ZM5 30H70V20C70 17.2386 67.7614 15 65 15H10C7.23858 15 5 17.2386 5 20V30Z" fill="#D9D9D9"/>
<path d="M80 62.5C80 72.165 72.165 80 62.5 80C52.835 80 45 72.165 45 62.5C45 52.835 52.835 45 62.5 45C72.165 45 80 52.835 80 62.5ZM62.5 52.5C61.1193 52.5 60 53.6193 60 55V60H55C53.6193 60 52.5 61.1193 52.5 62.5C52.5 63.8807 53.6193 65 55 65H60V70C60 71.3807 61.1193 72.5 62.5 72.5C63.8807 72.5 65 71.3807 65 70V65H70C71.3807 65 72.5 63.8807 72.5 62.5C72.5 61.1193 71.3807 60 70 60H65V55C65 53.6193 63.8807 52.5 62.5 52.5Z" fill="#D9D9D9"/>
</svg>
