<svg width="19" height="19" viewBox="0 0 19 19" fill="none" xmlns="http://www.w3.org/2000/svg">
<path d="M0.390524 0.390524C0.911223 -0.130175 1.75544 -0.130175 2.27614 0.390524L9.33333 7.44772L16.3905 0.390524C16.9112 -0.130175 17.7554 -0.130175 18.2761 0.390524C18.7968 0.911223 18.7968 1.75544 18.2761 2.27614L11.219 9.33333L18.2761 16.3905C18.7968 16.9112 18.7968 17.7554 18.2761 18.2761C17.7554 18.7968 16.9112 18.7968 16.3905 18.2761L9.33333 11.219L2.27614 18.2761C1.75544 18.7968 0.911223 18.7968 0.390524 18.2761C-0.130175 17.7554 -0.130175 16.9112 0.390524 16.3905L7.44772 9.33333L0.390524 2.27614C-0.130175 1.75544 -0.130175 0.911223 0.390524 0.390524Z" fill="#D9D9D9"/>
</svg>
